<?xml version="1.0" encoding="UTF-8"?><svg xmlns="http://www.w3.org/2000/svg" xmlns:xlink="http://www.w3.org/1999/xlink" height="255.1" preserveAspectRatio="xMidYMid meet" version="1.0" viewBox="85.0 85.0 255.1 255.1" width="255.1" zoomAndPan="magnify"><g><g id="change1_1"><path d="M206.9,141.93c10.03,24.92,5.2,38.24-5.6,42.58s-23.5-1.92-33.53-26.84S165,94.26,165,94.26 S196.88,117,206.9,141.93z" fill="#fab725"/></g><g id="change1_2"><path d="M218.3,283.27c-10.03-24.92-5.2-38.24,5.6-42.58s23.5,1.92,33.53,26.84 c10.03,24.92,2.78,63.41,2.78,63.41S228.32,308.2,218.3,283.27z" fill="#fab725"/></g><g id="change1_3"><path d="M283.27,206.9c-24.92,10.03-38.24,5.2-42.58-5.6s1.92-23.5,26.84-33.53s63.41-2.78,63.41-2.78 S308.2,196.88,283.27,206.9z" fill="#fab725"/></g><g id="change1_4"><path d="M141.93,218.3c24.92-10.03,38.24-5.2,42.58,5.6s-1.92,23.5-26.84,33.53 c-24.92,10.03-63.41,2.78-63.41,2.78S117,228.32,141.93,218.3z" fill="#fab725"/></g><g id="change1_5"><path d="M158.6,166.65c24.71,10.53,30.72,23.36,26.15,34.07c-4.57,10.71-17.98,15.26-42.69,4.73 c-24.71-10.53-46.8-42.88-46.8-42.88S133.89,156.12,158.6,166.65z" fill="#fab725"/></g><g id="change1_6"><path d="M266.6,258.55c-24.71-10.53-30.72-23.36-26.15-34.07c4.57-10.71,17.98-15.26,42.69-4.73 c24.71,10.53,46.8,42.88,46.8,42.88S291.31,269.08,266.6,258.55z" fill="#fab725"/></g><g id="change1_7"><path d="M258.55,158.6c-10.53,24.71-23.36,30.72-34.07,26.15c-10.71-4.57-15.26-17.98-4.73-42.69 s42.88-46.8,42.88-46.8S269.08,133.89,258.55,158.6z" fill="#fab725"/></g><g id="change1_8"><path d="M166.65,266.6c10.53-24.71,23.36-30.72,34.07-26.15c10.71,4.57,15.26,17.98,4.73,42.69 c-10.53,24.71-42.88,46.8-42.88,46.8S156.12,291.31,166.65,266.6z" fill="#fab725"/></g><g id="change2_1"><path d="M233.69,144.91c0,26.86-9.44,37.42-21.09,37.42s-21.09-10.55-21.09-37.42s21.09-59.87,21.09-59.87 S233.69,118.04,233.69,144.91z" fill="#ffd91d"/></g><g id="change2_2"><path d="M191.51,280.29c0-26.86,9.44-37.42,21.09-37.42s21.09,10.55,21.09,37.42c0,26.86-21.09,59.87-21.09,59.87 S191.51,307.16,191.51,280.29z" fill="#ffd91d"/></g><g id="change2_3"><path d="M280.29,233.69c-26.86,0-37.42-9.44-37.42-21.09s10.55-21.09,37.42-21.09 c26.86,0,59.87,21.09,59.87,21.09S307.16,233.69,280.29,233.69z" fill="#ffd91d"/></g><g id="change2_4"><path d="M144.91,191.51c26.86,0,37.42,9.44,37.42,21.09s-10.55,21.09-37.42,21.09S85.04,212.6,85.04,212.6 S118.04,191.51,144.91,191.51z" fill="#ffd91d"/></g><g id="change2_5"><path d="M179.65,149.82c19,19,19.78,33.13,11.55,41.37c-8.24,8.24-22.37,7.45-41.37-11.55 S122.4,122.4,122.4,122.4S160.65,130.83,179.65,149.82z" fill="#ffd91d"/></g><g id="change2_6"><path d="M245.55,275.38c-19-19-19.78-33.13-11.55-41.37c8.24-8.24,22.37-7.45,41.37,11.55 c19,19,27.42,57.25,27.42,57.25S264.55,294.37,245.55,275.38z" fill="#ffd91d"/></g><g id="change2_7"><path d="M275.38,179.65c-19,19-33.13,19.78-41.37,11.55c-8.24-8.24-7.45-22.37,11.55-41.37 s57.25-27.42,57.25-27.42S294.37,160.65,275.38,179.65z" fill="#ffd91d"/></g><g id="change2_8"><path d="M149.82,245.55c19-19,33.13-19.78,41.37-11.55c8.24,8.24,7.45,22.37-11.55,41.37 c-19,19-57.25,27.42-57.25,27.42S130.83,264.55,149.82,245.55z" fill="#ffd91d"/></g><g id="change3_1"><circle cx="211.43" cy="213.77" fill="#414343" r="45.53"/></g></g></svg>